<svg width="1024" height="1024" viewBox="0 0 1024 1024" fill="none" xmlns="http://www.w3.org/2000/svg">
<path d="M0 120C0 53.7258 53.7258 0 120 0H904C970.274 0 1024 53.7258 1024 120V904C1024 970.274 970.274 1024 904 1024H120C53.7258 1024 0 970.274 0 904V120Z" fill="white"/>
<path d="M391.632 719.688C389.912 737.872 382.08 754.792 369.152 767.976L369.112 768.016L369.072 768.056C368.736 768.4 368.4 768.736 368.056 769.072L368.016 769.112L367.976 769.152C352.944 783.888 333.064 792 312 792H232V712C232 690.936 240.112 671.056 254.848 656.024L254.888 655.984L254.928 655.944C255.264 655.6 255.6 655.264 255.944 654.928L255.984 654.888L256.024 654.848C269.208 641.92 286.128 634.088 304.312 632.368C299.296 623.72 294.816 614.728 290.888 605.44C286.752 595.664 283.288 585.696 280.512 575.56C254.976 581.424 232.104 594.28 214.024 612C213.344 612.664 212.664 613.344 212 614.024C187.256 639.272 172 673.856 172 712V852H312C350.144 852 384.728 836.744 409.976 812C410.656 811.336 411.336 810.656 412 809.976C429.72 791.896 442.576 769.024 448.44 743.488C438.304 740.712 428.336 737.248 418.56 733.112C409.272 729.184 400.28 724.704 391.632 719.688Z" fill="black"/>
<path d="M614.024 212C613.344 212.664 612.664 213.344 612 214.024C594.28 232.104 581.424 254.976 575.56 280.512C585.696 283.288 595.664 286.752 605.44 290.888C614.728 294.816 623.72 299.296 632.368 304.312C634.088 286.128 641.92 269.208 654.848 256.024L654.888 255.984L654.928 255.944C655.256 255.608 655.6 255.264 655.944 254.928L655.984 254.888L656.024 254.848C671.056 240.112 690.936 232 712 232H792V312C792 333.064 783.888 352.944 769.152 367.976L769.112 368.016L769.072 368.056C768.736 368.4 768.392 368.744 768.056 369.072L768.016 369.112L767.976 369.144C754.792 382.08 737.872 389.912 719.688 391.632C724.704 400.28 729.184 409.272 733.112 418.56C737.248 428.336 740.712 438.304 743.488 448.44C769.024 442.576 791.896 429.72 809.976 412C810.656 411.336 811.336 410.656 812 409.976C836.744 384.728 852 350.144 852 312V172H712C673.856 172 639.272 187.256 614.024 212Z" fill="black"/>
<path d="M809.976 612C791.896 594.28 769.024 581.424 743.488 575.56C740.712 585.696 737.248 595.664 733.112 605.44C729.184 614.728 724.704 623.72 719.688 632.368C737.872 634.088 754.792 641.92 767.976 654.848L768.016 654.888L768.056 654.928C768.4 655.264 768.736 655.6 769.072 655.944L769.112 655.984L769.152 656.024C783.888 671.056 792 690.936 792 712V792H712C690.936 792 671.056 783.888 656.024 769.152L655.984 769.112L655.944 769.072C655.6 768.736 655.264 768.4 654.928 768.056L654.888 768.016L654.848 767.976C641.92 754.792 634.088 737.872 632.368 719.688C623.72 724.704 614.728 729.184 605.44 733.112C595.664 737.248 585.696 740.712 575.56 743.488C581.424 769.024 594.28 791.896 612 809.976C612.664 810.656 613.344 811.336 614.024 812C639.272 836.744 673.856 852 712 852H852V712C852 673.856 836.744 639.272 812 614.024C811.336 613.344 810.656 612.664 809.976 612Z" fill="black"/>
<path d="M214.024 412C232.104 429.72 254.976 442.576 280.512 448.44C283.288 438.304 286.752 428.336 290.888 418.56C294.816 409.272 299.296 400.28 304.312 391.632C286.128 389.913 269.208 382.08 256.024 369.145L255.984 369.112L255.944 369.072C255.608 368.744 255.264 368.4 254.928 368.056L254.888 368.016L254.848 367.976C240.112 352.944 232 333.064 232 312V232H312C333.064 232 352.944 240.113 367.976 254.848L368.016 254.888L368.056 254.928C368.4 255.264 368.744 255.608 369.072 255.945L369.112 255.984L369.152 256.025C382.08 269.208 389.912 286.128 391.632 304.312C400.28 299.296 409.272 294.816 418.56 290.888C428.336 286.752 438.304 283.288 448.44 280.513C442.576 254.976 429.72 232.104 412 214.025C411.336 213.344 410.656 212.664 409.976 212C384.728 187.256 350.144 172 312 172H172V312C172 350.145 187.256 384.729 212 409.976C212.664 410.656 213.344 411.336 214.024 412Z" fill="black"/>
<path d="M692 512C692 412.589 611.411 332 512 332C412.589 332 332 412.589 332 512C332 611.411 412.589 692 512 692C611.411 692 692 611.411 692 512ZM596.853 596.853C574.188 619.518 544.053 632 512 632C479.947 632 449.812 619.518 427.147 596.853C404.482 574.188 392 544.053 392 512C392 479.947 404.482 449.812 427.147 427.147C449.812 404.482 479.947 392 512 392C544.053 392 574.188 404.482 596.853 427.147C619.518 449.812 632 479.947 632 512C632 544.053 619.518 574.188 596.853 596.853Z" fill="black"/>
</svg>
