<svg width="2158" height="551" viewBox="0 0 2158 551" fill="none" xmlns="http://www.w3.org/2000/svg">
<path d="M884.778 176.778V295.596H922.453V169.326C922.453 153.873 919.069 140.624 912.309 129.582C905.543 118.546 896.506 109.988 885.192 103.914C873.872 97.8467 861.038 94.8062 846.69 94.8062C832.886 94.8062 820.194 97.9112 808.602 104.121C797.01 110.331 787.552 118.889 780.244 129.789C780.113 129.983 779.992 130.183 779.864 130.379C779.713 130.114 779.57 129.845 779.416 129.582C772.927 118.546 764.097 109.988 752.92 103.914C741.741 97.8466 729.25 94.8061 715.452 94.8061C701.376 94.8061 688.678 97.9111 677.364 104.121C669.003 108.708 661.972 114.623 656.25 121.844V98.9462H618.99V295.596H656.25V176.364C656.25 166.706 658.456 158.426 662.874 151.524C667.286 144.628 673.082 139.247 680.262 135.378C687.436 131.516 695.58 129.582 704.688 129.582C718.208 129.582 729.457 133.793 738.429 142.209C747.395 150.631 751.884 162.152 751.884 176.778V295.596H789.144V176.364C789.144 166.707 791.35 158.426 795.768 151.525C800.179 144.629 806.046 139.247 813.363 135.379C820.673 131.516 828.888 129.582 837.996 129.582C851.244 129.582 862.351 133.794 871.324 142.209C880.289 150.632 884.778 162.152 884.778 176.778Z" fill="white"/>
<path d="M1115.46 269.028V295.596H1153.13V98.9463H1115.46V125.688C1108.69 116.722 1100.21 109.529 1090 104.121C1078.26 97.9111 1064.95 94.8062 1050.05 94.8062C1031.83 94.8062 1015.48 99.3604 1000.99 108.468C986.497 117.576 975.041 129.86 966.625 145.314C958.202 160.774 953.998 178.163 953.998 197.478C953.998 216.794 958.202 234.188 966.625 249.642C975.041 265.102 986.561 277.316 1001.19 286.281C1015.82 295.254 1032.1 299.736 1050.05 299.736C1065.22 299.736 1078.68 296.632 1090.41 290.422C1100.5 285.081 1108.84 277.943 1115.46 269.028ZM1023.14 255.852C1013.47 250.056 1005.95 242.125 1000.57 232.047C995.19 221.975 992.5 210.312 992.5 197.064C992.5 184.094 995.19 172.574 1000.57 162.495C1005.95 152.423 1013.41 144.486 1022.93 138.69C1032.45 132.894 1043.42 129.996 1055.84 129.996C1068.26 129.996 1079.16 132.83 1088.55 138.483C1097.93 144.144 1105.17 152.009 1110.28 162.081C1115.39 172.16 1117.94 183.958 1117.94 197.478C1117.94 217.079 1112.28 233.154 1100.97 245.71C1089.65 258.272 1074.74 264.546 1056.26 264.546C1043.84 264.546 1032.79 261.648 1023.14 255.852Z" fill="white"/>
<path d="M1337.65 295.596H1374.91V173.466C1374.91 159.946 1371.59 147.177 1364.97 135.171C1358.35 123.165 1349.3 113.436 1337.85 105.984C1326.4 98.5323 1313.22 94.8062 1298.32 94.8062C1283.41 94.8062 1270.02 98.1895 1258.16 104.949C1249.22 110.046 1241.77 116.511 1235.8 124.345V98.9463H1198.54V295.596H1235.8V180.918C1235.8 170.982 1238.01 162.152 1242.43 154.422C1246.84 146.699 1252.91 140.624 1260.64 136.206C1268.37 131.794 1277.2 129.582 1287.14 129.582C1302.04 129.582 1314.18 134.415 1323.57 144.072C1332.95 153.736 1337.65 166.014 1337.65 180.918V295.596Z" fill="white"/>
<path d="M1605.58 295.596V0H1567.91V126.034C1560.98 116.908 1552.29 109.598 1541.83 104.121C1529.96 97.9111 1516.71 94.8062 1502.08 94.8062C1483.87 94.8062 1467.58 99.3604 1453.23 108.468C1438.88 117.576 1427.49 129.86 1419.08 145.314C1410.65 160.774 1406.45 178.163 1406.45 197.478C1406.45 216.794 1410.65 234.188 1419.08 249.642C1427.49 265.102 1438.88 277.316 1453.23 286.281C1467.58 295.254 1483.87 299.736 1502.08 299.736C1516.99 299.736 1530.37 296.632 1542.24 290.422C1552.57 285.012 1561.13 277.769 1567.91 268.694V295.596L1605.58 295.596ZM1540.79 255.852C1531.54 261.648 1520.71 264.546 1508.29 264.546C1495.87 264.546 1484.9 261.648 1475.38 255.852C1465.86 250.056 1458.41 242.125 1453.02 232.047C1447.64 221.975 1444.95 210.312 1444.95 197.064C1444.95 184.094 1447.64 172.574 1453.02 162.495C1458.41 152.423 1465.79 144.486 1475.17 138.69C1484.55 132.894 1495.46 129.996 1507.88 129.996C1520.3 129.996 1531.13 132.894 1540.38 138.69C1549.62 144.486 1556.94 152.352 1562.32 162.288C1567.7 172.224 1570.39 183.958 1570.39 197.478C1570.39 210.455 1567.77 221.975 1562.53 232.047C1557.28 242.125 1550.04 250.056 1540.79 255.852Z" fill="white"/>
<path d="M1801.03 125.688C1794.26 116.722 1785.78 109.529 1775.56 104.121C1763.83 97.9111 1750.52 94.8062 1735.61 94.8062C1717.4 94.8062 1701.04 99.3604 1686.55 108.468C1672.06 117.576 1660.61 129.86 1652.19 145.314C1643.77 160.774 1639.57 178.163 1639.57 197.478C1639.57 216.794 1643.77 234.188 1652.19 249.642C1660.61 265.102 1672.13 277.316 1686.76 286.281C1701.39 295.254 1717.67 299.736 1735.61 299.736C1750.79 299.736 1764.24 296.632 1775.98 290.422C1786.06 285.081 1794.41 277.943 1801.03 269.028V295.596H1838.7V98.9464H1801.03V125.688ZM1786.54 245.71C1775.21 258.272 1760.31 264.546 1741.82 264.546C1729.4 264.546 1718.36 261.648 1708.7 255.852C1699.04 250.056 1691.52 242.125 1686.14 232.047C1680.76 221.975 1678.07 210.312 1678.07 197.064C1678.07 184.094 1680.76 172.574 1686.14 162.495C1691.52 152.423 1698.97 144.486 1708.5 138.69C1718.02 132.894 1728.99 129.996 1741.41 129.996C1753.83 129.996 1764.73 132.83 1774.12 138.483C1783.5 144.144 1790.74 152.009 1795.85 162.081C1800.95 172.16 1803.51 183.959 1803.51 197.478C1803.51 217.079 1797.85 233.154 1786.54 245.71Z" fill="white"/>
<path d="M1921.2 0H1883.94V295.596H1921.2V0Z" fill="white"/>
<path d="M2117.31 269.028V295.596H2154.98V98.9463H2117.31V125.688C2110.55 116.722 2102.06 109.529 2091.85 104.121C2080.11 97.9111 2066.8 94.8062 2051.9 94.8062C2033.68 94.8062 2017.33 99.3604 2002.84 108.468C1988.35 117.576 1976.89 129.86 1968.48 145.314C1960.05 160.774 1955.85 178.163 1955.85 197.478C1955.85 216.794 1960.05 234.188 1968.48 249.642C1976.89 265.102 1988.41 277.316 2003.04 286.281C2017.67 295.254 2033.95 299.736 2051.9 299.736C2067.07 299.736 2080.53 296.632 2092.26 290.422C2102.35 285.081 2110.69 277.943 2117.31 269.028ZM2024.99 255.852C2015.32 250.056 2007.81 242.125 2002.42 232.047C1997.04 221.975 1994.35 210.312 1994.35 197.064C1994.35 184.094 1997.04 172.574 2002.42 162.495C2007.81 152.423 2015.26 144.486 2024.78 138.69C2034.3 132.894 2045.27 129.996 2057.69 129.996C2070.11 129.996 2081.01 132.83 2090.4 138.483C2099.78 144.144 2107.02 152.009 2112.13 162.081C2117.24 172.16 2119.79 183.958 2119.79 197.478C2119.79 217.079 2114.13 233.154 2102.82 245.71C2091.5 258.272 2076.59 264.546 2058.11 264.546C2045.69 264.546 2034.65 261.648 2024.99 255.852Z" fill="white"/>
<path d="M161.494 453.466C160.229 466.837 154.47 479.278 144.965 488.972L144.935 489.001L144.906 489.031C144.659 489.284 144.412 489.531 144.159 489.778L144.129 489.807L144.1 489.837C133.047 500.672 118.429 506.637 102.941 506.637H44.1175V447.813C44.1175 432.325 50.0822 417.707 60.9175 406.654L60.9469 406.625L60.9763 406.596C61.2234 406.343 61.4704 406.096 61.7234 405.848L61.7528 405.819L61.7823 405.79C71.4764 396.284 83.9175 390.525 97.2882 389.26C93.6 382.901 90.3058 376.29 87.4176 369.46C84.3764 362.272 81.8293 354.943 79.7882 347.49C61.0117 351.801 44.1941 361.254 30.9 374.284C30.3999 374.772 29.9001 375.272 29.4118 375.772C11.2177 394.337 0 419.766 0 447.813V550.754H102.941C130.988 550.754 156.418 539.537 174.982 521.343C175.482 520.854 175.982 520.354 176.471 519.854C189.5 506.56 198.953 489.743 203.265 470.966C195.812 468.925 188.482 466.378 181.294 463.337C174.465 460.448 167.853 457.154 161.494 453.466Z" fill="white"/>
<path d="M325.018 80.1661C324.518 80.6544 324.018 81.1544 323.529 81.6545C310.5 94.9484 301.047 111.766 296.735 130.543C304.188 132.584 311.518 135.131 318.706 138.172C325.535 141.06 332.147 144.354 338.506 148.043C339.77 134.672 345.529 122.231 355.035 112.537L355.065 112.507L355.094 112.478C355.335 112.231 355.588 111.978 355.841 111.731L355.871 111.701L355.9 111.672C366.953 100.837 381.571 94.872 397.059 94.872H455.882V153.695C455.882 169.184 449.918 183.801 439.082 194.854L439.053 194.884L439.024 194.913C438.776 195.166 438.523 195.419 438.276 195.66L438.247 195.69L438.218 195.713C428.523 205.225 416.082 210.984 402.712 212.248C406.4 218.607 409.694 225.219 412.582 232.048C415.624 239.237 418.171 246.566 420.212 254.019C438.988 249.707 455.806 240.254 469.1 227.225C469.6 226.737 470.1 226.237 470.588 225.736C488.782 207.172 500 181.743 500 153.695V50.7543H397.059C369.012 50.7543 343.582 61.9719 325.018 80.1661Z" fill="white"/>
<path d="M469.1 374.284C455.806 361.254 438.988 351.801 420.212 347.49C418.171 354.943 415.624 362.272 412.582 369.46C409.694 376.29 406.4 382.901 402.712 389.26C416.082 390.525 428.523 396.284 438.218 405.79L438.247 405.819L438.276 405.848C438.529 406.095 438.776 406.343 439.024 406.596L439.053 406.625L439.082 406.654C449.918 417.707 455.882 432.325 455.882 447.813V506.637H397.059C381.571 506.637 366.953 500.672 355.9 489.837L355.871 489.807L355.841 489.778C355.588 489.531 355.341 489.284 355.094 489.031L355.065 489.001L355.035 488.972C345.529 479.278 339.771 466.837 338.506 453.466C332.147 457.154 325.535 460.448 318.706 463.337C311.518 466.378 304.188 468.925 296.735 470.966C301.047 489.743 310.5 506.56 323.529 519.854C324.018 520.354 324.518 520.854 325.018 521.343C343.582 539.537 369.012 550.754 397.059 550.754H500V447.813C500 419.766 488.782 394.337 470.588 375.772C470.1 375.272 469.6 374.772 469.1 374.284Z" fill="white"/>
<path d="M30.9001 227.225C44.1942 240.254 61.0119 249.707 79.7883 254.019C81.8294 246.566 84.3765 239.237 87.4177 232.049C90.3059 225.219 93.6001 218.607 97.2883 212.249C83.9176 210.984 71.4765 205.225 61.7824 195.713L61.7529 195.69L61.7235 195.66C61.4765 195.419 61.2236 195.166 60.9764 194.913L60.947 194.884L60.9176 194.854C50.0823 183.802 44.1176 169.184 44.1176 153.696V94.8721H102.941C118.429 94.8721 133.047 100.837 144.1 111.672L144.129 111.701L144.159 111.731C144.412 111.978 144.665 112.231 144.906 112.478L144.935 112.507L144.965 112.537C154.471 122.231 160.23 134.672 161.494 148.043C167.853 144.355 174.465 141.06 181.294 138.172C188.482 135.131 195.812 132.584 203.265 130.543C198.953 111.766 189.5 94.9485 176.471 81.6546C175.982 81.1545 175.482 80.6545 174.982 80.1662C156.418 61.972 130.988 50.7545 102.941 50.7545H0V153.696C0 181.743 11.2177 207.172 29.4118 225.737C29.9001 226.237 30.4001 226.737 30.9001 227.225Z" fill="white"/>
<path d="M382.353 300.754C382.353 227.658 323.096 168.401 250 168.401C176.903 168.401 117.647 227.658 117.647 300.754C117.647 373.851 176.903 433.107 250 433.107C323.096 433.107 382.353 373.851 382.353 300.754ZM312.392 363.146C295.726 379.812 273.568 388.99 250 388.99C226.431 388.99 204.274 379.812 187.608 363.146C170.943 346.481 161.765 324.323 161.765 300.754C161.765 277.186 170.943 255.028 187.608 238.363C204.274 221.697 226.431 212.519 250 212.519C273.568 212.519 295.726 221.697 312.392 238.363C329.057 255.028 338.235 277.186 338.235 300.754C338.235 324.323 329.057 346.481 312.392 363.146Z" fill="white"/>
<path d="M669.885 446.035C666.685 443.583 663.165 441.555 659.324 439.955C655.484 438.354 651.617 436.889 647.725 435.555C643.83 434.222 640.284 432.754 637.085 431.155C633.885 429.555 631.297 427.61 629.324 425.315C627.35 423.022 626.364 420.01 626.364 416.274C626.364 411.583 628.125 407.93 631.645 405.315C635.165 402.702 639.909 401.395 645.885 401.395C650.79 401.395 655.137 402.354 658.925 404.274C662.71 406.195 666.257 409.075 669.565 412.915L679.805 402.674C676.177 398.089 671.484 394.382 665.725 391.555C659.965 388.729 653.457 387.315 646.205 387.315C639.59 387.315 633.645 388.514 628.364 390.915C623.085 393.315 618.925 396.729 615.885 401.155C612.845 405.583 611.324 410.942 611.324 417.235C611.324 422.889 612.31 427.583 614.284 431.315C616.257 435.05 618.845 438.062 622.045 440.354C625.245 442.649 628.765 444.57 632.605 446.115C636.444 447.663 640.284 449.102 644.125 450.434C647.965 451.77 651.51 453.262 654.765 454.915C658.018 456.57 660.604 458.674 662.524 461.235C664.444 463.795 665.404 467.155 665.404 471.315C665.404 476.33 663.404 480.275 659.404 483.155C655.404 486.035 650.097 487.474 643.484 487.474C636.765 487.474 631.109 486.222 626.524 483.714C621.938 481.21 617.885 477.502 614.364 472.594L604.125 482.834C608.925 488.915 614.417 493.554 620.604 496.754C626.79 499.955 634.257 501.554 643.005 501.554C654.524 501.554 663.67 498.782 670.444 493.235C677.217 487.69 680.605 480.009 680.605 470.195C680.605 464.33 679.617 459.45 677.645 455.555C675.67 451.663 673.085 448.49 669.885 446.035Z" fill="white"/>
<path d="M803.482 403.794C798.362 398.57 792.414 394.514 785.642 391.635C778.867 388.754 771.534 387.315 763.642 387.315C755.749 387.315 748.414 388.754 741.642 391.635C734.867 394.514 728.947 398.57 723.882 403.794C718.814 409.022 714.867 415.075 712.042 421.955C709.215 428.834 707.802 436.274 707.802 444.274C707.802 452.169 709.215 459.582 712.042 466.514C714.867 473.45 718.842 479.554 723.962 484.834C729.082 490.115 735.055 494.222 741.882 497.155C748.707 500.087 756.067 501.554 763.962 501.554C771.747 501.554 779.027 500.087 785.802 497.155C792.574 494.222 798.494 490.142 803.561 484.914C808.627 479.69 812.601 473.61 815.482 466.674C818.362 459.743 819.802 452.33 819.802 444.434C819.802 436.434 818.362 428.969 815.482 422.035C812.601 415.102 808.601 409.022 803.482 403.794ZM799.002 466.434C795.482 472.889 790.707 477.955 784.682 481.634C778.654 485.315 771.642 487.155 763.642 487.155C757.774 487.155 752.362 486.089 747.402 483.954C742.442 481.822 738.175 478.862 734.601 475.075C731.027 471.289 728.255 466.754 726.282 461.475C724.307 456.195 723.322 450.461 723.322 444.274C723.322 435.955 725.055 428.594 728.522 422.195C731.987 415.794 736.734 410.782 742.762 407.155C748.787 403.53 755.747 401.714 763.642 401.714C769.614 401.714 775.055 402.754 779.962 404.834C784.867 406.915 789.135 409.874 792.762 413.714C796.387 417.555 799.215 422.062 801.242 427.235C803.267 432.41 804.282 438.089 804.282 444.274C804.282 452.594 802.522 459.982 799.002 466.434Z" fill="white"/>
<path d="M852.44 388.915V499.955H867.48V451.155H920.601V437.395H867.48V402.674H923.32V388.915H852.44Z" fill="white"/>
<path d="M943.161 402.674H980.922V499.955H995.961V402.674H1033.56V388.915H943.161V402.674Z" fill="white"/>
<path d="M1155.66 472.878L1129.4 388.915H1118.52L1092.34 472.625L1065.72 388.915H1050.68L1087 499.955H1097.72L1123.97 416.176L1150.36 499.955H1161.08L1197.24 388.915H1182.36L1155.66 472.878Z" fill="white"/>
<path d="M1251.32 388.915L1205.88 499.955H1221.88L1231.94 474.834H1281.19L1291.16 499.955H1307.48L1262.2 388.915H1251.32ZM1237.19 461.714L1256.67 413.058L1275.98 461.714H1237.19Z" fill="white"/>
<path d="M1395.32 447.714C1400.55 445.102 1404.57 441.45 1407.4 436.754C1410.23 432.062 1411.64 426.57 1411.64 420.274C1411.64 414.195 1410.23 408.809 1407.4 404.115C1404.57 399.422 1400.55 395.714 1395.32 392.995C1390.09 390.274 1383.96 388.914 1376.92 388.914H1336.12V499.954H1351.16V451.635H1360.97L1400.12 499.954H1419.16L1379.27 451.58C1385.33 451.318 1390.69 450.034 1395.32 447.714ZM1351.16 402.035H1376.44C1382.95 402.035 1387.93 403.795 1391.4 407.315C1394.87 410.835 1396.6 415.262 1396.6 420.594C1396.6 426.25 1394.84 430.729 1391.32 434.035C1387.8 437.342 1382.79 438.995 1376.28 438.995H1351.16L1351.16 402.035Z" fill="white"/>
<path d="M1461.72 449.714H1515.32V436.594H1461.72V402.674H1519.8V388.915H1446.68V499.955H1520.6V486.195H1461.72V449.714Z" fill="white"/>
<path d="M1670.04 435.635H1613.4V388.915H1598.36V499.955H1613.4V449.395H1670.04V499.955H1685.08V388.915H1670.04V435.635Z" fill="white"/>
<path d="M1813.4 403.794C1808.28 398.57 1802.33 394.514 1795.56 391.635C1788.78 388.754 1781.45 387.315 1773.56 387.315C1765.67 387.315 1758.33 388.754 1751.56 391.635C1744.78 394.514 1738.86 398.57 1733.8 403.794C1728.73 409.022 1724.78 415.075 1721.96 421.955C1719.13 428.834 1717.72 436.274 1717.72 444.274C1717.72 452.169 1719.13 459.582 1721.96 466.514C1724.78 473.45 1728.76 479.554 1733.88 484.834C1739 490.115 1744.97 494.222 1751.8 497.155C1758.62 500.087 1765.98 501.554 1773.88 501.554C1781.66 501.554 1788.94 500.087 1795.72 497.155C1802.49 494.222 1808.41 490.142 1813.48 484.914C1818.54 479.69 1822.52 473.61 1825.4 466.674C1828.28 459.743 1829.72 452.33 1829.72 444.434C1829.72 436.434 1828.28 428.969 1825.4 422.035C1822.52 415.102 1818.52 409.022 1813.4 403.794ZM1808.92 466.434C1805.4 472.889 1800.62 477.955 1794.6 481.634C1788.57 485.315 1781.56 487.155 1773.56 487.155C1767.69 487.155 1762.28 486.089 1757.32 483.954C1752.36 481.822 1748.09 478.862 1744.52 475.075C1740.94 471.289 1738.17 466.754 1736.2 461.475C1734.22 456.195 1733.24 450.461 1733.24 444.274C1733.24 435.955 1734.97 428.594 1738.44 422.195C1741.9 415.794 1746.65 410.782 1752.68 407.155C1758.7 403.53 1765.66 401.714 1773.56 401.714C1779.53 401.714 1784.97 402.754 1789.88 404.834C1794.78 406.915 1799.05 409.874 1802.68 413.714C1806.3 417.555 1809.13 422.062 1811.16 427.235C1813.18 432.41 1814.2 438.089 1814.2 444.274C1814.2 452.594 1812.44 459.982 1808.92 466.434Z" fill="white"/>
<path d="M1931.64 458.674C1931.64 464.434 1930.44 469.45 1928.04 473.714C1925.64 477.982 1922.38 481.29 1918.28 483.634C1914.17 485.982 1909.4 487.155 1903.96 487.155C1898.73 487.155 1894.01 485.982 1889.8 483.634C1885.58 481.29 1882.25 477.982 1879.8 473.714C1877.34 469.45 1876.12 464.382 1876.12 458.514V388.914H1861.08V458.834C1861.08 467.049 1862.94 474.382 1866.68 480.834C1870.41 487.29 1875.5 492.355 1881.96 496.035C1888.41 499.714 1895.74 501.554 1903.96 501.554C1912.28 501.554 1919.64 499.714 1926.04 496.035C1932.44 492.355 1937.5 487.315 1941.24 480.914C1944.97 474.514 1946.84 467.209 1946.84 458.995V388.914H1931.64V458.674Z" fill="white"/>
<path d="M2040.12 446.035C2036.92 443.583 2033.4 441.555 2029.56 439.955C2025.72 438.354 2021.85 436.889 2017.96 435.555C2014.06 434.222 2010.52 432.754 2007.32 431.155C2004.12 429.555 2001.53 427.61 1999.56 425.315C1997.58 423.022 1996.6 420.01 1996.6 416.274C1996.6 411.583 1998.36 407.93 2001.88 405.315C2005.4 402.702 2010.14 401.395 2016.12 401.395C2021.02 401.395 2025.37 402.354 2029.16 404.274C2032.94 406.195 2036.49 409.075 2039.8 412.915L2050.04 402.674C2046.41 398.089 2041.72 394.382 2035.96 391.555C2030.2 388.729 2023.69 387.315 2016.44 387.315C2009.82 387.315 2003.88 388.514 1998.6 390.915C1993.32 393.315 1989.16 396.729 1986.12 401.155C1983.08 405.583 1981.56 410.942 1981.56 417.235C1981.56 422.889 1982.54 427.583 1984.52 431.315C1986.49 435.05 1989.08 438.062 1992.28 440.354C1995.48 442.649 1999 444.57 2002.84 446.115C2006.68 447.663 2010.52 449.102 2014.36 450.434C2018.2 451.77 2021.74 453.262 2025 454.915C2028.25 456.57 2030.84 458.674 2032.76 461.235C2034.68 463.795 2035.64 467.155 2035.64 471.315C2035.64 476.33 2033.64 480.275 2029.64 483.155C2025.64 486.035 2020.33 487.474 2013.72 487.474C2007 487.474 2001.34 486.222 1996.76 483.714C1992.17 481.21 1988.12 477.502 1984.6 472.594L1974.36 482.834C1979.16 488.915 1984.65 493.554 1990.84 496.754C1997.02 499.955 2004.49 501.554 2013.24 501.554C2024.76 501.554 2033.9 498.782 2040.68 493.235C2047.45 487.69 2050.84 480.009 2050.84 470.195C2050.84 464.33 2049.85 459.45 2047.88 455.555C2045.9 451.663 2043.32 448.49 2040.12 446.035Z" fill="white"/>
<path d="M2098.2 486.195V449.714H2151.8V436.594H2098.2V402.674H2156.28V388.915H2083.16V499.955H2157.08V486.195H2098.2Z" fill="white"/>
</svg>
